<?xml version="1.0" standalone="no"?>
<!DOCTYPE svg PUBLIC "-//W3C//DTD SVG 20010904//EN"
 "http://www.w3.org/TR/2001/REC-SVG-20010904/DTD/svg10.dtd">
<svg version="1.0" xmlns="http://www.w3.org/2000/svg"
 width="768.000000pt" height="768.000000pt" viewBox="0 0 768.000000 768.000000"
 preserveAspectRatio="xMidYMid meet">

<g transform="translate(0.000000,768.000000) scale(0.100000,-0.100000)"
fill="#000000" stroke="none">
<path d="M0 3840 l0 -3840 3840 0 3840 0 0 3840 0 3840 -3840 0 -3840 0 0
-3840z m2348 3105 c207 -103 438 -278 657 -499 203 -204 354 -407 415 -556
l19 -45 0 85 c1 101 -17 178 -64 277 -47 101 -86 155 -179 251 l-81 83 80 -6
c263 -21 448 -94 603 -237 l39 -36 39 40 c126 131 353 219 600 230 l72 4 -79
-84 c-171 -180 -239 -331 -239 -528 l0 -77 50 98 c83 164 197 312 380 496 91
91 208 200 260 241 269 213 506 340 587 314 66 -21 142 -159 223 -403 56 -173
93 -332 115 -496 18 -141 20 -524 4 -660 l-12 -92 38 -75 c109 -216 294 -428
478 -550 53 -34 57 -39 37 -45 -34 -11 -279 -8 -339 4 -30 6 -56 9 -58 7 -2
-2 26 -25 63 -51 140 -101 268 -240 390 -426 63 -96 151 -265 142 -274 -5 -5
-143 50 -253 100 -75 35 -327 127 -332 122 -2 -3 13 -17 34 -33 225 -168 396
-414 457 -656 37 -147 46 -334 22 -466 -14 -77 -26 -104 -26 -58 0 15 -9 63
-20 106 -55 215 -207 434 -378 544 -73 47 -192 109 -198 104 -2 -2 30 -42 71
-89 173 -195 265 -378 315 -626 66 -330 -29 -716 -238 -969 -30 -35 -57 -64
-62 -64 -5 0 0 20 11 44 69 158 84 385 35 550 -50 168 -125 287 -254 407 -63
58 -160 125 -151 103 3 -5 25 -52 51 -104 193 -391 139 -860 -143 -1241 -168
-226 -384 -402 -655 -534 -75 -37 -259 -105 -281 -105 -3 0 24 30 61 68 116
116 181 238 212 399 14 77 17 229 5 273 -6 21 -9 15 -20 -35 -39 -177 -191
-403 -396 -588 -175 -158 -528 -372 -614 -372 -43 1 -243 95 -371 175 -186
116 -345 262 -475 437 -73 99 -157 260 -177 343 l-13 54 -7 -39 c-41 -232 56
-509 234 -670 49 -45 51 -48 23 -41 -65 16 -216 81 -332 144 -400 216 -697
569 -801 950 -24 89 -26 113 -26 287 -1 232 16 311 100 484 30 62 53 115 51
118 -3 2 -42 -24 -88 -59 -151 -115 -263 -280 -310 -458 -19 -69 -23 -111 -23
-230 -1 -150 10 -210 56 -319 10 -24 17 -45 15 -47 -1 -2 -33 34 -70 79 -160
194 -251 466 -251 752 0 201 40 368 130 547 60 122 113 196 203 291 83 87 79
91 -39 32 -228 -114 -400 -339 -471 -614 l-27 -104 -10 54 c-30 154 -21 350
23 506 29 101 106 267 163 350 60 88 145 176 238 249 46 36 84 67 84 69 0 14
-256 -83 -445 -168 -117 -52 -145 -62 -145 -49 0 5 29 67 65 138 109 218 285
428 469 558 82 59 82 62 -5 46 -67 -13 -314 -14 -336 -1 -14 7 -11 11 15 25
53 27 225 171 273 228 74 86 137 176 206 293 l66 110 -12 110 c-18 177 -19
220 -10 425 9 221 30 362 89 587 52 200 131 399 193 487 27 38 73 57 122 52
21 -3 81 -26 133 -51z"/>
<path d="M2202 6588 c-44 -101 -85 -255 -103 -388 -16 -114 -16 -370 -1 -450
27 -137 84 -276 164 -396 l41 -61 101 102 c140 140 256 216 496 323 l25 11
-25 7 c-71 21 -181 88 -252 154 -73 67 -198 212 -198 229 0 11 65 -1 186 -35
53 -14 98 -23 101 -20 10 9 -74 173 -129 254 -59 85 -327 362 -351 362 -9 0
-30 -34 -55 -92z"/>
<path d="M5273 6553 c-173 -171 -281 -316 -322 -436 l-20 -57 22 5 c12 3 77
18 145 34 67 15 122 25 122 22 0 -16 -136 -175 -202 -236 -52 -48 -100 -80
-171 -115 -54 -26 -94 -50 -90 -53 4 -2 26 -10 48 -17 65 -21 204 -94 285
-150 41 -29 121 -100 178 -158 56 -57 104 -103 106 -101 21 28 101 168 121
214 32 72 70 212 86 320 15 102 5 325 -21 458 -31 160 -114 384 -146 394 -6 2
-69 -54 -141 -124z"/>
<path d="M2911 4560 c-102 -22 -237 -80 -301 -130 l-25 -20 163 0 162 0 0 -27
c1 -40 33 -103 71 -140 53 -50 98 -64 193 -61 77 2 86 0 122 -24 49 -34 88
-83 125 -156 l29 -57 0 101 c0 234 -92 409 -256 486 -51 24 -80 30 -151 33
-48 2 -108 0 -132 -5z"/>
<path d="M4560 4557 c-168 -40 -282 -159 -325 -339 -16 -68 -21 -278 -6 -262
5 5 14 25 20 44 17 53 77 128 128 160 43 28 49 29 128 23 77 -5 87 -4 127 20
75 44 118 109 118 177 l0 30 168 0 c153 1 165 2 147 16 -35 27 -218 112 -266
123 -78 18 -180 21 -239 8z"/>
<path d="M4560 3213 c0 -454 -2 -474 -56 -574 -38 -69 -100 -131 -165 -166
-50 -26 -63 -28 -164 -28 -94 0 -117 3 -163 24 -69 31 -102 71 -102 122 l0 39
43 0 c81 0 179 66 209 139 16 40 28 211 18 251 -11 40 -61 93 -103 109 -17 7
-116 11 -243 11 -241 0 -259 -4 -312 -65 l-34 -37 4 -127 c3 -124 3 -127 36
-174 45 -65 98 -98 169 -106 l58 -6 -2 -44 c-2 -51 -16 -69 -86 -107 -45 -24
-66 -29 -147 -32 -117 -5 -177 15 -265 86 -75 60 -130 160 -145 267 -6 41 -9
224 -8 448 2 207 1 377 -3 377 -9 0 -99 -59 -178 -118 -271 -199 -415 -439
-451 -751 -13 -111 -4 -236 27 -360 20 -80 78 -220 118 -281 l30 -45 6 100
c13 205 87 406 198 536 l36 41 -3 -73 c-11 -228 94 -515 276 -757 40 -53 160
-183 180 -196 6 -4 0 23 -13 59 -24 62 -61 242 -52 251 2 2 29 -38 61 -89 32
-50 108 -156 170 -234 144 -180 196 -259 272 -409 l61 -121 32 76 c42 99 124
236 203 338 35 45 105 136 156 202 50 66 108 147 128 181 20 33 38 59 41 57 5
-6 -36 -211 -52 -258 -8 -23 -15 -44 -15 -47 0 -4 32 25 71 63 88 87 196 245
259 378 89 188 119 306 120 472 l1 110 29 -35 c125 -146 210 -378 210 -571 0
-38 4 -69 9 -69 5 0 32 46 60 103 154 313 157 638 7 934 -37 73 -115 184 -175
246 -63 68 -229 196 -348 270 -11 6 -13 -72 -13 -410z m-350 -882 c0 -16 -89
-82 -143 -106 -79 -34 -163 -48 -269 -43 -134 7 -212 39 -323 132 l-30 25 383
1 c213 0 382 -4 382 -9z"/>
</g>
</svg>
